
  <svg width="610.5" height="48" viewBox="0 0 3256 256" fill="none" xmlns="http://www.w3.org/2000/svg" xmlns:xlink="http://www.w3.org/1999/xlink" version="1.1">
    
        <g transform="translate(0, 0)">
          <svg xmlns="http://www.w3.org/2000/svg" width="256" height="256" fill="none" viewBox="0 0 256 256"><rect width="256" height="256" fill="#242938" rx="60"/><path fill="#00D8FF" d="M128.001 146.951C138.305 146.951 146.657 138.598 146.657 128.295C146.657 117.992 138.305 109.639 128.001 109.639C117.698 109.639 109.345 117.992 109.345 128.295C109.345 138.598 117.698 146.951 128.001 146.951Z"/><path fill-rule="evenodd" stroke="#00D8FF" stroke-width="8.911" d="M128.002 90.3633C153.05 90.3633 176.319 93.9575 193.864 99.9976C215.003 107.275 228 118.306 228 128.295C228 138.704 214.226 150.423 191.525 157.944C174.363 163.63 151.779 166.598 128.002 166.598C103.624 166.598 80.5389 163.812 63.1834 157.881C41.2255 150.376 28 138.506 28 128.295C28 118.387 40.4096 107.441 61.2515 100.175C78.8617 94.0353 102.705 90.3633 127.998 90.3633H128.002Z" clip-rule="evenodd"/><path fill-rule="evenodd" stroke="#00D8FF" stroke-width="8.911" d="M94.9811 109.438C107.495 87.7402 122.232 69.3783 136.23 57.1971C153.094 42.5206 169.144 36.7728 177.796 41.7623C186.813 46.9623 190.084 64.7496 185.259 88.1712C181.614 105.879 172.9 126.925 161.021 147.523C148.842 168.641 134.897 187.247 121.09 199.315C103.619 214.587 86.7284 220.114 77.8833 215.013C69.3003 210.067 66.0181 193.846 70.1356 172.161C73.6145 153.838 82.3451 131.349 94.977 109.438L94.9811 109.438Z" clip-rule="evenodd"/><path fill-rule="evenodd" stroke="#00D8FF" stroke-width="8.911" d="M95.0123 147.578C82.4633 125.904 73.9194 103.962 70.3531 85.7517C66.0602 63.8109 69.0954 47.0355 77.7401 42.0315C86.7485 36.8163 103.792 42.866 121.674 58.7437C135.194 70.7479 149.077 88.8052 160.99 109.383C173.204 130.481 182.358 151.856 185.919 169.844C190.425 192.608 186.778 210.001 177.941 215.116C169.367 220.08 153.676 214.825 136.945 200.427C122.809 188.263 107.685 169.468 95.0123 147.578Z" clip-rule="evenodd"/></svg>
        </g>
         
        <g transform="translate(300, 0)">
          <svg xmlns="http://www.w3.org/2000/svg" width="256" height="256" fill="none" viewBox="0 0 256 256"><rect width="256" height="256" fill="#242938" rx="60"/><path fill="#81CD39" d="M119.878 31.1164C124.797 28.3008 131.203 28.2883 136.117 31.1164C160.839 45.0855 185.569 59.0332 210.287 73.0108C214.937 75.6296 218.046 80.8038 217.999 86.1608V170.206C218.034 175.785 214.617 181.083 209.712 183.642C185.071 197.535 160.442 211.444 135.805 225.337C130.786 228.207 124.251 227.986 119.387 224.88C112 220.598 104.6 216.336 97.2121 212.058C95.7022 211.158 94.0004 210.442 92.9345 208.978C93.8766 207.708 95.5618 207.55 96.9309 206.995C100.014 206.014 102.847 204.44 105.679 202.913C106.396 202.423 107.27 202.611 107.957 203.049C114.274 206.671 120.536 210.399 126.874 213.986C128.226 214.767 129.595 213.73 130.751 213.086C154.931 199.419 179.141 185.805 203.318 172.134C204.214 171.703 204.709 170.752 204.636 169.771C204.653 142.046 204.64 114.317 204.645 86.5918C204.747 85.4785 204.103 84.455 203.096 83.999C178.541 70.1702 153.997 56.3205 129.446 42.4882C128.575 41.8893 127.426 41.8878 126.554 42.4837C102.002 56.3205 77.4638 70.1832 52.9124 84.011C51.9092 84.4675 51.236 85.4745 51.3554 86.5918C51.3596 114.317 51.3554 142.046 51.3554 169.775C51.2682 170.756 51.801 171.687 52.6906 172.109C59.2422 175.824 65.8024 179.513 72.3582 183.216C76.0516 185.203 80.5863 186.385 84.6555 184.862C88.2463 183.574 90.7633 179.909 90.6948 176.097C90.7288 148.534 90.6778 120.967 90.7203 93.4078C90.6309 92.1841 91.7912 91.1731 92.981 91.2885C96.1292 91.267 99.281 91.2461 102.429 91.297C103.743 91.267 104.647 92.5847 104.485 93.8174C104.472 121.555 104.519 149.293 104.464 177.03C104.472 184.423 101.435 192.467 94.5973 196.084C86.1737 200.447 75.7619 199.522 67.4399 195.338C60.2355 191.742 53.3603 187.498 46.2838 183.646C41.3661 181.101 37.966 175.782 38.0006 170.207V86.1608C37.949 80.6929 41.1825 75.4248 45.9764 72.8445C70.6133 58.9408 95.2461 45.0261 119.878 31.1164Z"/><path fill="#81CD39" d="M141.372 89.3351C152.117 88.6433 163.62 88.9255 173.289 94.2185C180.776 98.2754 184.926 106.789 185.058 115.106C184.849 116.227 183.676 116.846 182.605 116.769C179.488 116.765 176.369 116.812 173.252 116.748C171.929 116.799 171.161 115.58 170.995 114.411C170.099 110.431 167.928 106.49 164.183 104.57C158.433 101.692 151.767 101.837 145.497 101.897C140.92 102.139 135.998 102.536 132.12 105.227C129.143 107.266 128.239 111.382 129.301 114.697C130.303 117.077 133.05 117.845 135.299 118.553C148.248 121.94 161.97 121.602 174.672 126.059C179.931 127.876 185.075 131.409 186.875 136.915C189.23 144.295 188.198 153.115 182.947 159.039C178.689 163.914 172.488 166.568 166.303 168.009C158.075 169.844 149.536 169.891 141.18 169.076C133.323 168.18 125.146 166.116 119.081 160.763C113.894 156.259 111.361 149.241 111.612 142.469C111.672 141.325 112.811 140.527 113.907 140.621C117.046 140.596 120.186 140.587 123.325 140.626C124.58 140.536 125.509 141.62 125.574 142.802C126.152 146.593 127.577 150.573 130.884 152.82C137.264 156.937 145.271 156.655 152.577 156.77C158.63 156.502 165.425 156.421 170.364 152.42C172.97 150.138 173.742 146.32 173.038 143.036C172.275 140.263 169.374 138.971 166.883 138.126C154.1 134.083 140.224 135.55 127.565 130.977C122.425 129.161 117.455 125.727 115.481 120.447C112.726 112.974 113.988 103.73 119.789 98.0061C125.445 92.312 133.609 90.1192 141.372 89.3346V89.3351"/></svg>
        </g>
         
        <g transform="translate(600, 0)">
          <svg xmlns="http://www.w3.org/2000/svg" width="256" height="256" fill="none" viewBox="0 0 256 256"><rect width="256" height="256" fill="#242938" rx="60"/><path fill="#fff" d="M121.451 28.0537C121.021 28.0928 119.652 28.2297 118.42 28.3274C90.0137 30.8885 63.4057 46.216 46.5533 69.7742C37.1691 82.8729 31.1672 97.7312 28.8993 113.469C28.0978 118.963 28 120.586 28 128.034C28 135.483 28.0978 137.106 28.8993 142.599C34.3343 180.155 61.0596 211.71 97.306 223.401C103.797 225.493 110.639 226.92 118.42 227.78C121.451 228.112 134.549 228.112 137.58 227.78C151.011 226.294 162.389 222.971 173.611 217.242C175.331 216.363 175.664 216.128 175.429 215.933C175.273 215.815 167.941 205.981 159.144 194.095L143.152 172.492L123.112 142.834C112.086 126.529 103.015 113.195 102.936 113.195C102.858 113.176 102.78 126.353 102.741 142.443C102.682 170.615 102.663 171.749 102.311 172.413C101.803 173.371 101.412 173.762 100.59 174.193C99.9648 174.505 99.4174 174.564 96.4653 174.564H93.0831L92.1838 173.997C91.5973 173.626 91.1672 173.137 90.8739 172.57L90.4633 171.69L90.5024 132.492L90.5611 93.2737L91.1672 92.5112C91.48 92.1007 92.1447 91.5728 92.6139 91.3186C93.4154 90.9276 93.7283 90.8885 97.1105 90.8885C101.099 90.8885 101.763 91.0449 102.8 92.1789C103.093 92.4917 113.943 108.836 126.925 128.523C139.906 148.21 157.658 175.092 166.377 188.288L182.213 212.277L183.015 211.749C190.111 207.135 197.619 200.566 203.562 193.723C216.211 179.197 224.364 161.485 227.101 142.599C227.902 137.106 228 135.483 228 128.034C228 120.586 227.902 118.963 227.101 113.469C221.666 75.913 194.94 44.3587 158.694 32.6676C152.301 30.5953 145.498 29.1681 137.873 28.3079C135.996 28.1124 123.073 27.8973 121.451 28.0537ZM162.389 88.5425C163.327 89.0117 164.09 89.911 164.364 90.8494C164.52 91.3577 164.559 102.228 164.52 126.724L164.461 161.876L158.264 152.374L152.047 142.873V117.321C152.047 100.801 152.125 91.5141 152.242 91.0645C152.555 89.9697 153.239 89.1095 154.178 88.6011C154.979 88.1906 155.273 88.1515 158.342 88.1515C161.236 88.1515 161.744 88.1906 162.389 88.5425Z"/></svg>
        </g>
         
        <g transform="translate(900, 0)">
          <svg width="256" height="256" viewBox="0 0 256 256" fill="none" xmlns="http://www.w3.org/2000/svg">
<rect width="256" height="256" rx="60" fill="#242938"/>
<path d="M89.7778 193.926C82.5397 188.233 74.8187 182.775 69.5426 175.089C58.4409 161.535 49.893 145.842 44.0494 129.352C40.5173 118.628 39.3076 107.132 34.7543 96.8229C29.9911 89.3355 35.5705 81.1506 43.772 78.7706C47.4235 78.0698 53.8439 74.6256 46.0938 77.0873C39.1456 82.1851 38.4732 72.46 45.598 71.8441C50.4604 71.1978 52.2503 67.2173 50.5875 63.634C45.368 60.2303 63.2441 56.4895 54.2496 51.4107C44.8797 41.3017 67.356 39.3557 61.8107 50.8365C60.4834 59.6647 77.5161 49.2184 73.5641 59.4131C77.5809 64.3089 88.6059 60.5274 88.3324 67.3958C94.1838 67.798 96.192 72.7214 101.685 73.0993C107.378 75.6702 117.698 77.6961 119.635 84.1113C113.987 88.5828 100.909 74.875 100.28 87.2525C101.986 105.537 101.552 124.373 108.242 141.785C111.406 152.328 119.077 160.628 126.004 168.839C132.633 176.881 141.611 182.543 150.762 187.31C158.79 191.096 167.444 193.607 176.193 195.182C179.741 192.468 186.006 182.378 191.542 186.633C191.804 191.414 180.555 196.627 191.012 196.098C197.153 194.246 201.412 200.848 206.469 194.893C211.128 200.411 225.833 191.367 222.518 202.647C218.036 205.539 211.498 203.791 207.009 207.769C199.606 204.072 193.713 211.078 185.518 210.192C176.417 211.822 167.158 212.48 157.931 212.494C142.794 211.298 127.336 210.794 112.936 205.524C104.824 203.167 96.9075 198.547 89.7778 193.926V193.926ZM102.562 199.465C110.483 202.891 118.229 206.501 126.91 207.59C140.683 209.506 154.906 212.452 168.728 209.765C162.472 206.94 156.005 210.865 149.772 207.745C142.298 209.353 134.276 207.335 126.678 206.341C118.036 202.492 108.711 199.846 100.619 194.849C90.5074 191.156 105.848 199.586 108.579 200.268C114.9 203.856 101.628 198.429 99.7569 196.938C94.4627 193.968 93.788 194.589 99.2327 197.605C100.329 198.246 101.413 198.919 102.562 199.465V199.465ZM87.4891 188.813C95.165 191.657 87.4552 183.416 83.9378 183.894C82.3794 181.191 77.9838 179.483 81.0845 178.03C75.507 179.967 75.2418 170.667 72.6201 171.996C66.7196 170.133 70.3236 163.532 63.2951 159.479C62.6535 155.208 56.3119 151.504 54.2892 145.062C53.3959 141.764 47.1246 132.292 50.977 141.107C54.2572 149.593 60.0284 156.86 64.8312 164.118C68.5605 171.029 72.9641 178.252 79.7559 182.564C82.0454 184.76 84.2559 188.125 87.4891 188.813ZM65.3763 164.535C65.6442 163.376 66.7801 167.044 65.3763 164.535V164.535ZM96.6817 192.222C98.3815 191.461 94.2375 191.263 96.6817 192.222V192.222ZM100.849 193.742C100.417 191.643 98.9464 194.915 100.849 193.742V193.742ZM106.064 195.917C108.547 193.553 102.237 194.427 106.064 195.917V195.917ZM115.004 200.9C116.513 198.669 110.174 200.058 115.004 200.9V200.9ZM97.8376 188.933C101.694 186.438 92.8561 188.899 97.8376 188.933V188.933ZM101.75 190.884C101.641 189.565 100.356 191.475 101.75 190.884V190.884ZM121.306 203.09C124.449 205.074 139.663 207.438 130.137 203.903C128.543 204.239 112.472 199.358 121.306 203.09ZM90.2609 178.911C89.9552 177.588 85.3813 177.451 90.2609 178.911V178.911ZM99.3646 184.217C101.734 182.565 94.4471 182.942 99.3646 184.217V184.217ZM107.022 188.912C110.422 187.63 101.507 187.624 107.022 188.912V188.912ZM86.5564 174.877C90.2453 177.706 101.433 175.239 92.2057 173.188C88.0058 170.949 78.5402 169.417 84.9922 174.538L86.5564 174.877L86.5564 174.877ZM112.209 190.533C113.745 187.915 105.765 189.038 112.209 190.533V190.533ZM104.414 184.338C113.434 186.89 96.8286 178.634 102.188 183.399L103.376 183.937L104.414 184.338L104.414 184.338ZM120.042 193.371C128.585 193.453 112.326 192.193 120.042 193.371V193.371ZM83.2695 169.934C82.9359 168.343 81.1614 170.068 83.2695 169.934V169.934ZM134.492 201.477C134.72 198.603 131.705 203.615 134.492 201.477V201.477ZM97.8478 178.862C97.3311 177.349 95.1786 178.8 97.8478 178.862V178.862ZM84.0797 168.936C88.984 168.641 77.3653 166.775 84.0797 168.936V168.936ZM67.7695 158.393C67.1591 156.042 62.4328 154.167 67.7695 158.393V158.393ZM110.588 185.567C109.689 184.542 110.165 185.791 110.588 185.567V185.567ZM137.239 201.922C137.154 200.356 135.788 202.514 137.239 201.922V201.922ZM108.229 183.131C108.709 181.114 104.047 182.52 108.229 183.131V183.131ZM88.374 170.548C92.0226 170.157 82.5292 168.081 88.374 170.548V170.548ZM121.96 191.418C127.646 189.165 116.419 190.318 121.96 191.418V191.418ZM104.49 179.559C111.043 180.404 96.6934 175.102 103.052 179.084L104.49 179.559L104.49 179.559V179.559ZM127.264 193.562C133.382 189.904 131.365 202.126 137.644 194.594C143.837 190.072 132.295 200.185 139.928 195.401C145.448 191.709 153.601 197.151 158.752 198.926C162.456 198.744 166.056 202.129 169.854 200.07C177.163 198.101 155.56 197.15 161.223 193.657C154.534 195.603 149.593 191.336 146.302 187.052C138.799 185.319 130.125 181.484 126.381 174.845C124.854 172.352 128.586 175.196 125.063 171.121C120.542 167.1 118.285 162.536 115.25 157.648C111.624 155.714 111.202 150.021 110.836 157.457C110.864 152.764 106.458 149.605 105.383 150.918C105.364 146.399 110.098 148.664 106.784 145.32C106.071 140.636 103.722 135.754 103.016 130.465C101.919 127.916 102.861 122.456 99.2719 128.227C97.9643 134.327 98.8379 120.732 100.871 125.215C103.541 120.64 99.9132 121.178 99.7646 121.813C101.503 117.954 100.865 112.479 99.311 114.567C100.237 110.476 100.775 99.5116 97.9243 101.455C99.6521 97.1768 101.201 81.88 93.7005 87.7122C90.6607 87.7549 85.3966 88.8156 82.9083 90.0531C90.7102 94.3538 82.1235 91.6063 78.9476 90.9227C78.5338 94.9021 75.3881 93.181 71.4582 93.22C77.7352 93.9966 68.4016 99.6398 64.8007 97.4478C60.1241 99.6829 68.8367 105.262 64.8945 106.987C65.379 109.588 57.73 106.048 58.3307 112.054C53.7907 110.144 57.7056 119.178 59.9769 116.123C67.6987 118.213 65.4129 122.977 65.6095 127.503C64.3514 130.141 59.3979 121.304 64.5063 121.714C60.4762 115.167 60.0483 119.347 56.6994 122.389C55.9203 122.609 65.2417 126.716 59.392 128.747C64.5385 129.541 64.6849 134.044 65.7326 136.894C68.8259 140.116 68.1928 133.337 71.8941 137.208C69.5519 133.759 59.4879 127.489 67.5908 129.5C67.5475 126.028 66.1253 123.229 68.6078 123.297C71.0662 118.845 66.0331 134.274 71.5744 128.616C73.1083 127.946 73.4883 124.158 76.2455 128.973C80.2501 132.913 77.692 135.768 72.0429 132.16C73.0536 135.589 79.5999 136.814 78.3697 142.176C79.6738 146.891 81.4985 145.155 83.0889 144.882C84.3365 149.464 85.045 146.095 85.1042 143.914C90.8167 145.137 89.4786 148.514 91.266 150.873C95.2024 152.65 85.6317 138.829 92.3898 146.717C99.5 153.137 95.0564 155.817 88.6756 154.788C92.7141 154.462 94.0165 160.248 99.0679 160.045C103.674 162.236 106.793 170.653 98.8531 167.149C96.0992 164.666 86.3536 161.603 94.3135 166.326C101.665 169.73 107.504 171.767 114.595 176.04C119.669 179.663 121.861 183.812 123.785 184.633C119.52 186.67 110.932 183.007 117.309 181.884C113.332 181.16 108.858 179.148 112.668 184.104C115.907 186.809 124.145 186.522 125.622 186.828C124.37 189.587 122.222 189.806 125.673 190.02C121.823 192.072 126.907 192.389 127.264 193.562H127.264ZM119.391 171.328C117.048 168.878 116.443 164.289 118.975 168.282C120.273 168.803 123.135 175.78 119.391 171.328H119.391ZM145.032 187.615C146.493 187.52 145.074 188.725 145.032 187.615V187.615ZM115.692 165.321C115.602 161.617 116.539 168.177 115.692 165.321V165.321ZM113.144 161.892C110.197 156.199 116.858 163.504 113.144 161.892V161.892ZM82.2613 140.577C83.9924 140.115 83.113 143.538 82.2613 140.577V140.577ZM106.84 153.899C107.903 149.907 108.089 157.249 106.84 153.899V153.899ZM89.4758 141.826C88.2518 139.623 92.0362 143.892 89.4758 141.826V141.826ZM104.378 146.603C101.586 140.348 106.354 143.186 104.995 147.628L104.378 146.603ZM78.6793 129.464C77.4313 127.413 75.3669 121.392 76.0315 119.554C76.6327 122.547 82.3966 132.435 78.8588 123.65C74.9493 116.286 83.5321 126.041 84.415 127.877C84.8261 129.705 82.0029 127.378 83.9158 131.663C80.4273 126.785 81.8564 134.357 78.6793 129.464V129.464ZM70.7371 123.992C71.064 119.221 72.5552 127.263 70.7371 123.992V123.992ZM74.3096 125.221C76.0143 121.621 77.2002 130.241 74.3096 125.221V125.221ZM65.7158 118.573C62.7589 115.635 60.6191 112.927 65.8542 116.75C67.8713 116.829 61.3725 110.59 66.34 114.769C71.5634 115.721 68.9193 123.333 65.7158 118.573ZM70.23 118.455C71.9472 116.754 71.1416 120.131 70.23 118.455V118.455ZM73.0076 119.346C70.4043 114.466 76.1672 121.392 73.0076 119.346V119.346ZM67.4859 114.069C58.8899 106.419 78.2873 118.069 68.8902 115.487L67.4858 114.069L67.4859 114.069V114.069ZM92.1147 128.379C88.3949 126.149 91.1289 112.677 92.3975 121.891C96.0137 120.721 92.1978 126.649 94.895 126.594C94.47 130.334 93.2633 131.679 92.1147 128.379ZM101.224 133.763C101.589 129.703 101.992 136.539 101.224 133.763V133.763ZM99.642 132.199C100.052 130.465 99.6844 134.242 99.642 132.199V132.199ZM69.1721 111.555C63.6498 103.936 85.2215 119.262 72.7091 113.488C71.4016 113.146 69.8285 113.024 69.1721 111.555ZM86.7142 120.856C86.1916 114.441 87.8813 121.919 86.714 120.856L86.7142 120.856ZM100.033 129.4C101.063 125.745 100.11 131.817 100.033 129.4V129.4ZM70.0181 108.647C73.3002 107.945 83.6198 114.412 74.1431 110.494C73.0902 109.329 70.8454 109.858 70.0181 108.647ZM98.2029 122.695C98.5537 116.135 100.162 118.776 98.215 123.634L98.203 122.695L98.2029 122.695H98.2029ZM72.4613 106.365C73.7986 104.403 68.9113 97.4957 73.1657 103.887C75.0041 105.348 78.4884 106.334 75.4121 106.949C80.2503 111.217 74.232 108.105 72.4613 106.365V106.365ZM96.8088 120.646C97.7327 113.173 97.6236 125.024 96.8088 120.646V120.646ZM69.6683 99.4626C70.6897 99.0261 70.2077 100.824 69.6683 99.4626V99.4626ZM76.0192 103.243C77.6536 99.813 79.0343 107.068 76.0192 103.243V103.243ZM93.9334 113.208C93.9161 111.891 94.2714 115.124 93.9334 113.208V113.208ZM92.8957 110.911C90.4093 104.777 95.2085 114.159 92.8957 110.911V110.911ZM91.369 106.889C90.9517 104.354 92.7875 110.073 91.369 106.889L91.369 106.889ZM93.8536 102.85C92.1474 99.8432 96.0083 89.5998 96.4391 95.9527C94.6382 100.903 95.9196 103.672 97.1759 97.0325C99.4959 91.8072 96.6747 107.344 93.8536 102.85L93.8536 102.85V102.85ZM96.407 87.6163C97.1507 86.703 96.572 88.7167 96.407 87.6163V87.6163ZM92.1429 171.638C91.1316 170.755 92.27 172.2 92.1429 171.638V171.638ZM100.927 176.082C105.813 177.335 105.788 175.321 101.372 174.723C98.9969 172.513 91.5019 170.17 98.2103 174.449C98.6546 175.574 100.058 175.548 100.927 176.082V176.082ZM83.5787 164.559C86.2706 166.566 93.7181 170.248 87.4135 165.323C89.5391 162.853 83.345 161.539 85.3997 159.887C80.1734 156.689 81.2769 156.973 84.9384 157.074C78.6574 154.266 85.8451 154.476 85.5066 153.038C83.0847 152.559 73.4769 148.767 79.1291 153.349C73.3833 150.42 77.7599 154.441 76.0232 154.016C70.1477 152.413 81.2557 158.49 75.0901 156.982C78.4608 159.653 84.163 163.824 76.5152 159.809C75.5075 161.259 81.988 163.458 83.5787 164.559ZM92.7659 169.837C103.937 173.436 87.2893 165.439 92.7659 169.837V169.837ZM139.795 198.327C139.939 196.111 138.269 200.218 139.795 198.327V198.327ZM144.629 200.362C147.206 197.864 144.734 204.34 148.9 199.75C148.945 196.465 148.771 194.524 144.113 198.515C142.829 199.227 142.256 202.255 144.629 200.362V200.362ZM67.8987 152.174C67.1072 149.062 62.3506 149.078 67.8987 152.174V152.174ZM73.0602 155.556C71.1435 152.378 66.2214 152.679 73.0602 155.556V155.556ZM102.424 173.265C105.291 175.811 115.592 175.133 105.907 173.578C104.472 171.457 96.798 171.968 102.424 173.265ZM142.791 198.194C147.203 194.492 138.515 199.846 142.791 198.194V198.194ZM151.967 204.5C151.995 203.312 150.066 205.021 151.967 204.5V204.5ZM151.982 202.837C156.868 197.66 147.247 203.143 151.982 202.837H151.982ZM55.2036 141.545C51.039 135.603 52.6148 132.932 48.5987 128.081C47.8384 124.371 41.7091 115.951 45.4285 124.871C48.8352 130.087 49.8476 138.164 55.2036 141.545V141.545ZM150.449 201.191C159.438 195.381 146.759 198.66 150.449 201.191V201.191ZM157.311 203.88C161.813 200.014 154.464 203.071 157.311 203.88V203.88ZM66.3687 145.606C67.6571 143.689 63.0414 145.36 66.3687 145.606V145.606ZM155.878 202.044C160.237 199.234 154.874 199.665 155.088 202.303L155.878 202.044H155.878ZM96.7253 164.76C96.5755 162.862 94.4236 164.921 96.7253 164.76V164.76ZM100.381 166.863C99.2191 164.514 98.5947 167.232 100.381 166.863V166.863ZM162.872 203.943C168.456 199.915 159.487 203.172 161.7 204.706L162.872 203.943ZM160.734 202.91C165.283 199.098 155.931 204.599 160.734 202.91V202.91ZM171.659 210.185C174.713 208.14 167.948 209.523 171.659 210.185V210.185ZM69.1698 144.223C73.2638 145.141 85.5304 154.306 78.2936 144.857C74.5872 143.76 76.8101 134.7 73.0295 136.304C75.567 140.543 75.1172 142.347 69.7896 139.675C63.0937 136.406 66.0267 141.294 67.3353 142.642C65.552 143.047 69.6942 144.189 69.1698 144.223V144.223ZM50.5177 129.493C51.2506 126.462 43.7691 112.816 46.9848 122.656C48.1456 124.717 48.0276 128.623 50.5177 129.493ZM84.7523 150.599C82.6442 148.836 84.6521 150.35 84.7523 150.599V150.599ZM89.9437 151.808C89.941 148.596 84.2054 150.504 89.9437 151.808V151.808ZM134.931 180.168C134.073 177.974 131.539 180.117 134.931 180.168L134.931 180.168ZM137.091 181.746C136.772 180.518 135.845 181.983 137.091 181.746V181.746ZM154.922 192.977C156.637 191.71 152.782 192.816 154.922 192.977V192.977ZM59.8346 131.872C64.7399 129.972 54.5789 130.517 59.8346 131.872V131.872ZM130.97 176.688C130.916 173.512 127.843 177.475 130.97 176.688V176.688ZM57.8965 127.355C61.0474 126.291 54.9816 126.654 57.8965 127.355V127.355ZM67.0422 131.786C66.9851 130.742 66.0748 132.181 67.0422 131.786V131.786ZM178.593 200.19C182.645 199.369 191.878 202.252 193.371 199.116C188.45 198.996 176.347 195.644 175.774 199.916L176.852 200.085L178.593 200.19V200.19ZM69.949 132.518C70.0194 129.3 67.4396 132.398 69.949 132.518V132.518ZM45.9025 115.838C44.8104 109.706 41.749 114.91 45.9025 115.838V115.838ZM51.6367 117.279C51.7071 115.31 46.3882 115.507 51.6367 117.279V117.279ZM54.9136 118.888C53.9664 118.121 54.1722 119.858 54.9136 118.888V118.888ZM75.5326 132.115C76.5033 131.224 73.2345 131.455 75.5326 132.115V132.115ZM52.731 115.259C52.1768 110.628 46.0896 114.565 52.731 115.259V115.259ZM40.975 107.631C40.8078 105.493 39.8294 108.437 40.975 107.631V107.631ZM42.7237 106.31C42.4384 103.776 41.2223 106.632 42.7237 106.31V106.31ZM52.3855 112.077C56.4711 110.472 44.9437 108.758 51.5507 111.774L52.3855 112.077ZM181.694 191.949C184.309 189.552 178.371 191.208 181.694 191.949V191.949ZM197.316 200.047C198.364 196.947 194.677 200.455 197.316 200.047V200.047ZM53.3729 107.013C53.8033 104.015 50.1339 107.608 53.3729 107.013V107.013ZM39.6265 97.8031C38.888 93.5698 38.989 86.1392 46.0524 88.6503C36.6239 90.5222 52.5779 100.369 50.5632 92.5946C54.5277 92.7887 58.3186 90.2516 56.2381 94.1018C64.0492 93.2391 69.4646 86.4658 77.0096 87.4149C82.8868 86.6372 89.3127 86.0473 95.6461 83.6816C100.853 83.3064 105.866 77.7 103.012 74.3769C95.9106 73.7761 88.4772 74.6646 80.6283 76.2247C71.9308 78.0327 64.0306 81.468 55.255 82.9425C46.7013 84.0916 56.9755 86.1084 54.5253 86.5577C50.0619 88.1064 59.8484 89.1507 53.9467 90.7834C50.3019 90.0904 46.5082 88.838 48.0651 84.9971C39.8714 86.0604 32.6715 89.461 39.145 97.7992L39.6265 97.8029L39.6265 97.8026V97.8031ZM59.3703 87.7476C61.2914 80.6703 69.6628 93.5714 62.5192 88.6876C61.6659 88.0491 60.2626 87.5281 59.3703 87.7476ZM59.7441 84.3163C62.5168 82.2507 61.218 85.4744 59.7441 84.3163V84.3163ZM63.2648 84.3722C63.5151 81.1156 71.3244 86.0963 64.5525 85.5446L63.2648 84.3722ZM68.0809 82.4358C69.8396 80.3808 68.5864 84.2637 68.0809 82.4358V82.4358ZM69.3129 81.6108C72.2414 78.0921 85.8973 79.3651 75.9017 81.2677C73.2225 79.2507 71.1688 82.457 69.3129 81.6108ZM87.1342 78.8637C86.6887 69.2521 95.988 82.2793 87.1342 78.8637V78.8637ZM92.1909 78.836C94.0397 73.9917 99.3652 76.8921 93.0464 77.8626C93.1836 78.3781 92.8611 80.3635 92.1909 78.836ZM51.3789 104.527C56.9028 101.144 45.5148 101.592 51.3789 104.527V104.527ZM55.4632 105.661C57.3999 103.602 51.255 104.826 55.4632 105.661V105.661ZM43.429 97.1207C46.5853 94.696 39.6939 96.1988 43.429 97.1207V97.1207ZM206.536 199.161C206.628 196.348 204.124 200.428 206.536 199.161V199.161ZM189.963 187.85C190.434 184.612 187.833 188.133 189.963 187.85V187.85ZM211.094 200.251C215.507 200.266 224.465 198.881 214.863 198.885C213.356 199.12 206.084 199.07 211.094 200.251L211.094 200.251V200.251ZM59.0559 103.676C62.6273 103.431 64.6436 99.7368 58.3651 99.9491C48.6345 98.9417 66.9503 103.281 57.1169 102.04C55.7955 102.915 58.9791 103.918 59.0559 103.676ZM62.2013 105.268C61.8284 102.975 61.0969 106.487 62.2013 105.268V105.268ZM65.9324 95.3192C67.4823 93.3969 63.7878 94.8053 65.9324 95.3192V95.3192ZM54.0548 75.4651C60.4288 73.2967 69.1451 70.8601 72.1547 76.5327C69.0918 72.8463 70.9186 69.2172 73.8115 74.6071C77.9022 80.0605 79.95 72.1267 77.2894 70.2976C80.3214 74.0648 83.7699 75.845 79.3194 70.5357C84.1556 64.7182 69.6358 71.2975 66.3356 71.2312C64.7477 71.9439 49.942 75.0071 54.0548 75.4651V75.4651ZM57.7903 68.3109C61.4254 65.5672 70.3626 69.9429 64.6277 65.5842C64.067 65.0889 52.0682 68.8895 57.7903 68.3109V68.3109ZM71.0429 68.858C75.2974 68.9666 69.2078 63.1426 74.2775 65.7816C73.4449 63.0616 68.375 62.5524 65.8963 61.4656C64.4944 63.9525 68.7499 68.8914 71.0429 68.858ZM60.1141 56.8279C61.5859 54.8327 57.5346 57.8395 60.1141 56.8279V56.8279ZM65.5306 58.1244C72.3867 57.215 63.783 55.1719 64.1491 58.0513L65.5306 58.1244V58.1244V58.1244ZM55.4168 50.2106C50.5894 43.9088 64.4954 51.2699 59.5908 44.6717C55.4627 41.3845 51.4959 48.3709 55.4168 50.2106ZM117.369 83.5798C119.583 79.6548 108.228 78.2891 115.877 82.1887C116.582 82.4241 116.422 83.8513 117.369 83.5798Z" fill="white"/>
</svg>

        </g>
         
        <g transform="translate(1200, 0)">
          <svg xmlns="http://www.w3.org/2000/svg" width="256" height="256" fill="none" viewBox="0 0 256 256"><rect width="256" height="256" fill="#242938" rx="60"/><path fill="url(#paint0_linear_2_119)" fill-rule="evenodd" d="M83 110C88.9991 86.0009 104.001 74 128 74C164 74 168.5 101 186.5 105.5C198.501 108.501 209 104.001 218 92C212.001 115.999 196.999 128 173 128C137 128 132.5 101 114.5 96.5C102.499 93.4991 92 97.9991 83 110ZM38 164C43.9991 140.001 59.0009 128 83 128C119 128 123.5 155 141.5 159.5C153.501 162.501 164 158.001 173 146C167.001 169.999 151.999 182 128 182C92 182 87.5 155 69.5 150.5C57.4991 147.499 47 151.999 38 164Z" clip-rule="evenodd"/><defs><linearGradient id="paint0_linear_2_119" x1="86.5" x2="163.5" y1="74" y2="185.5" gradientUnits="userSpaceOnUse"><stop stop-color="#32B1C1"/><stop offset="1" stop-color="#14C6B7"/></linearGradient></defs></svg>
        </g>
         
        <g transform="translate(1500, 0)">
          <svg xmlns="http://www.w3.org/2000/svg" width="256" height="256" fill="none" viewBox="0 0 256 256"><rect width="256" height="256" fill="#242938" rx="60"/><path fill="#44D1FD" d="M144.934 38.0615L200.709 38L107.134 131.526L82.7472 155.777L55 127.996L144.934 38.0615ZM144.415 121.569C145.139 120.613 146.471 121.085 147.482 120.962L200.661 120.975L152.194 169.395L124.303 141.675L144.415 121.569Z"/><path fill="#1FBCFD" d="M96.5013 169.442L124.303 141.675L152.194 169.395L152.31 169.518L124.31 197.258L96.5013 169.442V169.442Z"/><path fill="#08589C" d="M124.31 197.258L152.31 169.518L200.681 217.937C182.461 217.978 164.247 217.923 146.034 217.964C144.996 218.196 144.354 217.247 143.691 216.66L124.31 197.258V197.258Z"/></svg>
        </g>
         
        <g transform="translate(1800, 0)">
          <svg width="256" height="256" viewBox="0 0 256 256" fill="none" xmlns="http://www.w3.org/2000/svg">
<rect width="256" height="256" rx="60" fill="#242938"/>
<path d="M124.228 229L90.623 208.89V90.31L40 120.459L40.123 75.545L124.228 26V229ZM131.784 26V229L165.393 208.89V151.781L190.763 166.895L190.612 127.833L165.393 112.988V90.31L216 120.459L215.878 75.545L131.784 26Z" fill="#FF6F00"/>
</svg>

        </g>
         
        <g transform="translate(2100, 0)">
          <svg width="256" height="256" viewBox="0 0 256 256" fill="none" xmlns="http://www.w3.org/2000/svg">
<rect width="256" height="256" rx="60" fill="#242938"/>
<path d="M180.975 90.4153L167.567 103.824C189.508 125.765 189.508 161.115 167.567 182.65C145.625 204.591 110.275 204.591 88.7404 182.65C66.7991 160.709 66.7991 125.359 88.7404 103.824L123.481 69.0835L128.357 64.2077V38L75.9413 90.4153C46.6862 119.67 46.6862 166.804 75.9413 196.059C105.196 225.314 152.33 225.314 180.975 196.059C210.23 166.6 210.23 119.67 180.975 90.4153Z" fill="#EE4C2C"/>
<path d="M154.77 87.1705C160.156 87.1705 164.522 82.8045 164.522 77.4188C164.522 72.0331 160.156 67.667 154.77 67.667C149.385 67.667 145.019 72.0331 145.019 77.4188C145.019 82.8045 149.385 87.1705 154.77 87.1705Z" fill="#EE4C2C"/>
</svg>

        </g>
         
        <g transform="translate(2400, 0)">
          <svg width="256" height="256" viewBox="0 0 256 256" fill="none" xmlns="http://www.w3.org/2000/svg">
<rect width="256" height="256" rx="60" fill="#242938"/>
<g clip-path="url(#clip0_983_172)">
<path d="M181.405 160.654C205.831 136.23 209.891 100.69 190.472 81.2731C171.056 61.8579 135.518 65.9168 111.094 90.3399C86.6691 114.764 93.7346 161.426 102.028 169.721C108.73 176.423 156.982 185.078 181.405 160.654Z" fill="#F89939"/>
<path d="M81.1816 125.361C67.0116 111.192 46.3899 108.833 35.1213 120.1C23.8556 131.367 26.211 151.991 40.3838 166.159C54.5567 180.333 81.6323 176.234 86.4412 171.42C90.3327 167.535 95.3558 139.533 81.1816 125.361Z" fill="#3499CD"/>
<path d="M130.073 154.668C127.57 156.972 125.374 158.672 123.487 159.765C121.599 160.861 119.799 161.409 118.086 161.409C116.116 161.409 114.527 160.645 113.321 159.117C112.114 157.587 111.513 155.536 111.513 152.956C111.513 149.089 112.351 144.448 114.027 139.036C115.7 133.62 117.737 128.629 120.13 124.063L127.147 121.466C127.367 121.392 127.534 121.354 127.645 121.354C128.177 121.354 128.617 121.747 128.955 122.528C129.296 123.313 129.467 124.367 129.467 125.692C129.467 129.449 128.603 133.086 126.87 136.603C125.137 140.122 122.432 143.877 118.749 147.873C118.601 149.789 118.528 151.104 118.528 151.823C118.528 153.427 118.822 154.695 119.411 155.635C120.001 156.576 120.783 157.043 121.759 157.043C122.755 157.043 123.813 156.687 124.937 155.969C126.058 155.249 127.771 153.759 130.073 151.492V154.668H130.073ZM119.495 143.869C121.833 141.269 123.732 138.354 125.186 135.128C126.64 131.9 127.366 129.125 127.366 126.799C127.366 126.121 127.266 125.57 127.064 125.156C126.862 124.741 126.602 124.533 126.29 124.533C125.611 124.533 124.62 126.229 123.321 129.622C122.022 133.015 120.747 137.764 119.495 143.869Z" fill="#010101"/>
<path d="M150.737 154.667C148.399 156.972 146.3 158.672 144.439 159.765C142.579 160.861 140.528 161.408 138.28 161.408C135.775 161.408 133.754 160.607 132.214 159.007C130.678 157.402 129.91 155.295 129.91 152.68C129.91 148.777 131.263 145.245 133.973 142.087C136.677 138.927 139.68 137.349 142.976 137.349C144.689 137.349 146.059 137.792 147.092 138.676C148.123 139.561 148.639 140.719 148.639 142.156C148.639 145.969 144.588 149.061 136.485 151.437C137.221 155.026 139.145 156.824 142.258 156.824C143.474 156.824 144.633 156.497 145.737 155.845C146.844 155.19 148.509 153.738 150.738 151.493L150.737 154.667ZM136.263 149.558C140.976 148.231 143.334 145.784 143.334 142.211C143.334 140.443 142.688 139.56 141.401 139.56C140.185 139.56 139.026 140.484 137.922 142.336C136.814 144.186 136.263 146.592 136.263 149.558Z" fill="#010101"/>
<path d="M180.238 154.668C177.291 157.466 175.182 159.292 173.913 160.14C172.642 160.987 171.427 161.409 170.266 161.409C167.356 161.409 165.985 158.841 166.15 153.703C164.309 156.335 162.609 158.278 161.053 159.533C159.498 160.785 157.892 161.409 156.232 161.409C154.614 161.409 153.238 160.651 152.103 159.132C150.969 157.612 150.406 155.749 150.406 153.537C150.406 150.776 151.164 148.142 152.682 145.636C154.203 143.131 156.15 141.108 158.525 139.561C160.9 138.014 163.001 137.239 164.822 137.239C167.125 137.239 168.737 138.299 169.658 140.415L175.303 137.296H176.853L174.414 145.388C173.162 149.459 172.534 152.249 172.534 153.759C172.534 155.342 173.094 156.134 174.219 156.134C174.934 156.134 175.726 155.752 176.592 154.987C177.458 154.222 178.671 153.057 180.236 151.492V154.668H180.238ZM160.018 156.189C161.859 156.189 163.594 154.619 165.227 151.48C166.857 148.339 167.671 145.441 167.671 142.79C167.671 141.76 167.439 140.953 166.981 140.374C166.519 139.792 165.902 139.504 165.13 139.504C163.288 139.504 161.541 141.069 159.896 144.2C158.248 147.332 157.422 150.213 157.422 152.844C157.422 153.84 157.667 154.646 158.155 155.263C158.642 155.881 159.261 156.189 160.018 156.189Z" fill="#010101"/>
<path d="M200.873 154.668C196.25 159.197 192.686 161.464 190.182 161.464C189.058 161.464 188.109 160.99 187.337 160.044C186.566 159.095 186.177 157.92 186.177 156.52C186.177 153.923 187.569 150.444 190.349 146.079C188.985 146.779 187.495 147.265 185.874 147.542C184.677 149.752 182.797 152.128 180.239 154.667H179.605V152.184C181.04 150.692 182.339 149.089 183.499 147.376C181.913 146.676 181.123 145.635 181.123 144.257C181.123 142.837 181.604 141.323 182.574 139.709C183.54 138.1 184.87 137.295 186.566 137.295C188.002 137.295 188.719 138.029 188.719 139.503C188.719 140.664 188.305 142.32 187.475 144.476C190.531 144.143 193.202 141.807 195.487 137.459L197.999 137.348L195.43 144.42C194.363 147.403 193.672 149.435 193.36 150.511C193.048 151.587 192.89 152.542 192.89 153.37C192.89 154.144 193.07 154.763 193.428 155.22C193.787 155.684 194.271 155.912 194.879 155.912C195.541 155.912 196.178 155.685 196.785 155.237C197.392 154.782 198.755 153.535 200.874 151.492V154.668H200.873Z" fill="#010101"/>
<path d="M228 154.668C223.747 159.164 220.098 161.409 217.061 161.409C215.827 161.409 214.833 160.977 214.078 160.111C213.321 159.246 212.944 158.086 212.944 156.632C212.944 154.661 213.755 151.65 215.376 147.6C216.241 145.426 216.675 144.043 216.675 143.456C216.675 142.866 216.443 142.571 215.985 142.571C215.728 142.571 215.385 142.701 214.962 142.957C214.574 143.215 214.123 143.577 213.607 144.036C213.148 144.459 212.631 144.974 212.06 145.58C211.562 146.1 211.028 146.689 210.46 147.349L208.911 149.146C208.231 149.974 207.807 150.848 207.642 151.769C207.364 153.334 207.181 154.772 207.088 156.081C207.031 157.055 207.005 158.37 207.005 160.031L200.9 161.465C200.699 158.979 200.596 157.128 200.596 155.914C200.596 152.949 200.941 150.14 201.633 147.489C202.323 144.835 203.431 141.854 204.961 138.538L211.7 137.24C210.283 141.053 209.353 144.053 208.911 146.244C211.931 142.874 214.326 140.542 216.1 139.242C217.872 137.943 219.45 137.296 220.829 137.296C221.766 137.296 222.549 137.65 223.173 138.357C223.8 139.066 224.111 139.955 224.111 141.018C224.111 142.784 223.32 145.694 221.738 149.747C220.65 152.527 220.107 154.33 220.107 155.163C220.107 156.272 220.559 156.826 221.463 156.826C222.81 156.826 224.991 155.048 228 151.494V154.668Z" fill="#010101"/>
<path d="M140.525 123.723C140.568 124.211 140.69 124.585 140.89 124.845C141.259 125.316 141.898 125.552 142.808 125.552C143.35 125.552 143.827 125.435 144.239 125.202C144.651 124.964 144.856 124.598 144.856 124.105C144.856 123.731 144.691 123.447 144.361 123.252C144.149 123.133 143.732 122.995 143.109 122.837L141.947 122.545C141.205 122.361 140.657 122.155 140.305 121.927C139.677 121.532 139.362 120.984 139.362 120.285C139.362 119.462 139.658 118.795 140.248 118.286C140.844 117.777 141.643 117.522 142.646 117.522C143.957 117.522 144.902 117.907 145.482 118.676C145.845 119.164 146.021 119.689 146.011 120.253H144.629C144.602 119.922 144.485 119.622 144.279 119.351C143.943 118.966 143.361 118.774 142.532 118.774C141.979 118.774 141.559 118.879 141.272 119.091C140.991 119.302 140.85 119.581 140.85 119.928C140.85 120.307 141.037 120.611 141.41 120.838C141.627 120.974 141.947 121.093 142.369 121.196L143.337 121.431C144.388 121.686 145.092 121.933 145.45 122.171C146.019 122.545 146.303 123.133 146.303 123.935C146.303 124.709 146.008 125.379 145.417 125.942C144.832 126.506 143.938 126.787 142.735 126.787C141.44 126.787 140.522 126.495 139.98 125.91C139.444 125.319 139.156 124.59 139.119 123.723H140.525ZM151.334 117.498C152.315 117.498 153.111 117.736 153.723 118.213C154.341 118.69 154.712 119.511 154.837 120.676H153.414C153.328 120.139 153.13 119.695 152.821 119.343C152.512 118.985 152.017 118.806 151.334 118.806C150.402 118.806 149.736 119.261 149.335 120.172C149.074 120.762 148.944 121.491 148.944 122.358C148.944 123.23 149.129 123.964 149.497 124.56C149.866 125.156 150.445 125.454 151.236 125.454C151.843 125.454 152.323 125.27 152.675 124.902C153.032 124.528 153.279 124.019 153.414 123.374H154.837C154.674 124.528 154.268 125.373 153.618 125.91C152.967 126.441 152.136 126.706 151.123 126.706C149.985 126.706 149.077 126.292 148.4 125.463C147.723 124.628 147.384 123.588 147.384 122.342C147.384 120.814 147.755 119.624 148.497 118.774C149.24 117.923 150.185 117.498 151.334 117.498ZM156.3 117.79H157.787V126.454H156.3V117.79ZM156.3 114.515H157.787V116.173H156.3V114.515ZM159.973 114.515H161.379V121.448L165.134 117.75H167.003L163.671 121.009L167.19 126.454H165.321L162.606 122.065L161.379 123.187V126.454H159.973V114.515ZM168.328 117.79H169.815V126.454H168.328V117.79ZM168.328 114.515H169.815V116.173H168.328V114.515ZM172.327 115.32H173.806V117.75H175.196V118.944H173.806V124.625C173.806 124.929 173.909 125.132 174.115 125.235C174.228 125.295 174.418 125.324 174.684 125.324C174.754 125.324 174.83 125.324 174.911 125.324C174.992 125.319 175.087 125.311 175.196 125.3V126.454C175.028 126.503 174.852 126.538 174.667 126.56C174.489 126.581 174.294 126.592 174.082 126.592C173.4 126.592 172.936 126.419 172.692 126.072C172.449 125.72 172.327 125.265 172.327 124.707V118.944H171.148V117.75H172.327V115.32Z" fill="white"/>
</g>
<defs>
<clipPath id="clip0_983_172">
<rect width="200" height="107.86" fill="white" transform="translate(28 69)"/>
</clipPath>
</defs>
</svg>

        </g>
         
        <g transform="translate(2700, 0)">
          <svg width="256" height="256" viewBox="0 0 256 256" fill="none" xmlns="http://www.w3.org/2000/svg">
<rect width="256" height="256" rx="60" fill="#242938"/>
<path d="M104.028 122.58C95.08 117.414 88.087 109.44 84.1332 99.895C80.1794 90.3496 79.4857 79.7664 82.1598 69.7866C84.8339 59.8069 90.7262 50.9884 98.923 44.6988C107.12 38.4092 117.163 35 127.495 35C137.826 35 147.87 38.4092 156.066 44.6988C164.263 50.9884 170.155 59.8069 172.829 69.7866C175.504 79.7664 174.81 90.3496 170.856 99.895C166.902 109.44 159.909 117.414 150.962 122.58L136.831 98.1043C140.39 96.0492 143.172 92.8769 144.745 89.0795C146.318 85.282 146.594 81.0717 145.53 77.1015C144.466 73.1312 142.122 69.623 138.861 67.1208C135.6 64.6186 131.605 63.2623 127.495 63.2623C123.384 63.2623 119.389 64.6186 116.128 67.1208C112.867 69.623 110.523 73.1312 109.459 77.1015C108.395 81.0717 108.671 85.282 110.244 89.0795C111.817 92.8769 114.599 96.0492 118.159 98.1043L104.028 122.58Z" fill="#FF0101"/>
<path d="M204.533 133.943C213.481 139.109 220.474 147.083 224.427 156.628C228.381 166.173 229.075 176.756 226.401 186.736C223.727 196.716 217.834 205.534 209.638 211.824C201.441 218.114 191.398 221.523 181.066 221.523C170.734 221.523 160.691 218.114 152.494 211.824C144.297 205.534 138.405 196.716 135.731 186.736C133.057 176.756 133.751 166.173 137.704 156.628C141.658 147.083 148.651 139.109 157.599 133.943L171.73 158.419C168.17 160.474 165.388 163.646 163.815 167.443C162.242 171.241 161.967 175.451 163.03 179.421C164.094 183.392 166.438 186.9 169.699 189.402C172.96 191.904 176.956 193.261 181.066 193.261C185.176 193.261 189.172 191.904 192.433 189.402C195.693 186.9 198.038 183.392 199.101 179.421C200.165 175.451 199.889 171.241 198.316 167.443C196.743 163.646 193.961 160.474 190.402 158.419L204.533 133.943Z" fill="#0101FF"/>
<path d="M121.868 174.589C121.868 184.921 118.459 194.964 112.169 203.16C105.88 211.357 97.0613 217.25 87.0816 219.924C77.1018 222.598 66.5186 221.904 56.9733 217.95C47.4279 213.996 39.4539 207.003 34.288 198.056C29.1221 189.108 27.053 178.706 28.4016 168.463C29.7502 158.219 34.4411 148.707 41.7467 141.401C49.0524 134.096 58.5646 129.405 68.808 128.056C79.0514 126.708 89.4536 128.777 98.4012 133.943L84.27 158.419C80.7104 156.363 76.5721 155.54 72.497 156.077C68.4219 156.613 64.6376 158.479 61.7312 161.386C58.8248 164.292 56.9586 168.077 56.4221 172.152C55.8856 176.227 56.7088 180.365 58.7639 183.925C60.8191 187.484 63.9914 190.266 67.7888 191.839C71.5862 193.412 75.7965 193.688 79.7668 192.624C83.737 191.561 87.2453 189.216 89.7475 185.955C92.2496 182.695 93.6059 178.699 93.6059 174.589H121.868Z" fill="#01FF01"/>
</svg>

        </g>
        
  <g transform="translate(3000, 0)">
  <rect width="256" height="256" rx="60" fill="#242938"/>
  <svg x="16" y="16" width="224" height="224" viewBox="0 0 256 256">
<path d="M230.721 172.7C230.183 170.673 229.313 168.75 228.146 167.008C228.396 166.091 228.587 165.159 228.714 164.217C229.543 158.241 227.471 152.77 223.567 148.537C221.452 146.225 219.185 144.698 216.784 143.761C218.36 137.018 219.157 130.117 219.161 123.193C219.161 120.03 218.982 116.932 218.682 113.88C218.526 112.356 218.337 110.836 218.115 109.32C217.428 104.847 216.408 100.431 215.064 96.11C214.183 93.2707 213.164 90.476 212.01 87.736C210.281 83.6782 208.262 79.75 205.969 75.982C204.465 73.475 202.827 71.0508 201.062 68.72C200.197 67.543 199.296 66.3938 198.358 65.274C195.58 61.898 192.561 58.7277 189.325 55.788C188.25 54.7997 187.145 53.8453 186.01 52.926C184.893 51.9943 183.751 51.0927 182.586 50.222C180.241 48.4766 177.818 46.8392 175.324 45.315C161.543 36.945 145.382 32.145 128.109 32.145C77.817 32.145 37.057 72.907 37.057 123.196C37.055 130.208 37.867 137.196 39.477 144.02C37.317 144.958 35.247 146.42 33.327 148.535C29.424 152.766 27.351 158.217 28.18 164.193C28.306 165.142 28.495 166.082 28.747 167.006C27.5811 168.749 26.7117 170.673 26.174 172.7C24.974 177.261 25.369 181.374 26.894 184.978C25.236 189.688 25.65 194.704 27.809 199.065C29.379 202.25 31.626 204.714 34.396 206.916C37.689 209.534 41.811 211.758 46.783 213.892C52.715 216.422 59.956 218.799 63.249 219.671C71.755 221.873 79.911 223.269 88.177 223.337C99.954 223.446 110.096 220.677 117.357 213.59C120.924 214.027 124.515 214.246 128.109 214.244C131.906 214.236 135.699 213.997 139.467 213.529C146.711 220.661 156.892 223.455 168.712 223.343C176.977 223.277 185.133 221.881 193.617 219.676C196.932 218.804 204.17 216.427 210.105 213.897C215.077 211.76 219.199 209.536 222.514 206.922C225.263 204.719 227.508 202.256 229.079 199.071C231.26 194.709 231.652 189.693 230.017 184.983C231.527 181.379 231.92 177.257 230.721 172.7ZM222.281 184.673C223.952 187.844 224.059 191.427 222.585 194.764C220.349 199.821 214.795 203.805 204.008 208.082C197.3 210.742 191.158 212.443 191.104 212.458C182.232 214.759 174.208 215.928 167.262 215.928C155.76 215.928 147.201 212.754 141.773 206.486C132.594 208.05 123.222 208.103 114.026 206.644C108.591 212.808 100.081 215.928 88.676 215.928C81.729 215.928 73.706 214.759 64.833 212.458C64.779 212.443 58.639 210.742 51.929 208.082C41.143 203.805 35.587 199.824 33.352 194.764C31.878 191.427 31.985 187.844 33.656 184.673C33.81 184.378 33.976 184.091 34.153 183.813C33.1516 182.309 32.4799 180.61 32.182 178.827C31.8842 177.045 31.967 175.22 32.425 173.472C33.089 170.949 34.46 168.851 36.322 167.344C35.425 165.87 34.8365 164.23 34.592 162.522C34.056 158.808 35.289 155.1 38.062 152.076C40.222 149.723 43.275 148.428 46.655 148.428H46.745C44.1965 140.259 42.9044 131.75 42.913 123.193C42.913 76.522 80.749 38.683 127.427 38.683C174.104 38.683 211.94 76.518 211.94 123.193C211.947 131.773 210.646 140.304 208.081 148.492C208.489 148.452 208.889 148.432 209.282 148.431C212.662 148.431 215.716 149.726 217.874 152.079C220.647 155.1 221.881 158.811 221.344 162.525C221.1 164.233 220.511 165.873 219.615 167.347C221.477 168.854 222.849 170.952 223.512 173.475C223.97 175.223 224.053 177.048 223.755 178.831C223.458 180.613 222.786 182.312 221.784 183.816C221.961 184.091 222.129 184.378 222.281 184.673Z" fill="white"/>
<path d="M221.784 183.816C222.786 182.312 223.458 180.613 223.756 178.831C224.053 177.048 223.97 175.223 223.512 173.475C222.848 170.952 221.476 168.854 219.615 167.347C220.512 165.873 221.1 164.233 221.344 162.525C221.881 158.811 220.648 155.103 217.874 152.079C215.716 149.726 212.662 148.431 209.282 148.431C208.889 148.431 208.489 148.452 208.081 148.492C210.643 140.304 211.942 131.774 211.933 123.195C211.933 76.5231 174.097 38.6851 127.424 38.6851C80.75 38.6851 42.9099 76.5191 42.9099 123.195C42.9015 131.752 44.1936 140.261 46.742 148.43H46.6519C43.2719 148.43 40.219 149.724 38.06 152.077C35.287 155.098 34.0529 158.81 34.5899 162.523C34.8346 164.231 35.4231 165.872 36.3199 167.346C34.4579 168.852 33.086 170.95 32.422 173.473C31.9642 175.222 31.8817 177.047 32.1799 178.83C32.4781 180.612 33.1501 182.312 34.1519 183.816C33.9739 184.094 33.8099 184.381 33.6549 184.676C31.9849 187.847 31.877 191.43 33.352 194.767C35.588 199.824 41.1419 203.808 51.9289 208.085C58.6359 210.745 64.779 212.446 64.833 212.461C73.705 214.762 81.729 215.931 88.675 215.931C100.081 215.931 108.591 212.811 114.026 206.647C123.222 208.106 132.594 208.052 141.773 206.489C147.201 212.757 155.76 215.931 167.262 215.931C174.208 215.931 182.232 214.762 191.103 212.461C191.158 212.446 197.298 210.745 204.008 208.085C214.795 203.808 220.35 199.824 222.585 194.767C224.059 191.43 223.952 187.847 222.281 184.676C222.129 184.379 221.961 184.091 221.784 183.816ZM110.137 196.997C109.669 197.815 109.168 198.614 108.635 199.391C107.23 201.448 105.382 203.02 103.237 204.188C99.1369 206.424 93.947 207.205 88.675 207.205C80.346 207.205 71.808 205.256 67.023 204.015C66.787 203.954 37.689 195.735 41.373 188.739C41.993 187.562 43.0129 187.092 44.2979 187.092C49.4849 187.092 58.9299 194.816 62.9889 194.816C63.8959 194.816 64.5359 194.43 64.7969 193.488C66.5269 187.284 38.5039 184.676 40.8639 175.692C41.2799 174.102 42.41 173.456 43.998 173.456C50.856 173.455 66.248 185.516 69.467 185.516C69.714 185.516 69.8909 185.443 69.9869 185.291C70.0009 185.268 70.015 185.246 70.028 185.222C71.539 182.727 70.6719 180.913 60.3209 174.573L59.3269 173.968C47.9359 167.074 39.9409 162.925 44.4879 157.975C45.0109 157.404 45.7529 157.151 46.6539 157.151C47.7219 157.151 49.0149 157.508 50.4389 158.108C56.4549 160.645 64.793 167.564 68.276 170.581C68.8239 171.057 69.3683 171.538 69.9089 172.022C69.9089 172.022 74.319 176.608 76.985 176.608C77.599 176.608 78.1199 176.366 78.4729 175.768C80.364 172.58 60.9099 157.838 59.8129 151.755C59.0689 147.634 60.3349 145.546 62.6749 145.546C63.7879 145.546 65.1459 146.02 66.6449 146.971C71.2949 149.922 80.2729 165.35 83.5599 171.352C84.6619 173.363 86.5429 174.213 88.2379 174.213C91.6009 174.213 94.2299 170.87 88.5459 166.622C80.0029 160.23 83.001 149.782 87.078 149.139C87.252 149.111 87.4279 149.097 87.6029 149.097C91.3109 149.097 92.9459 155.486 92.9459 155.486C92.9459 155.486 97.7399 167.524 105.975 175.753C113.447 183.222 114.491 189.351 110.137 196.997ZM136.766 198.407L136.339 198.458L135.611 198.541C135.228 198.581 134.844 198.619 134.459 198.654L134.084 198.688L133.741 198.717L133.255 198.756L132.718 198.795L132.182 198.83L132.063 198.838C131.923 198.846 131.783 198.855 131.641 198.862L131.462 198.872C131.296 198.881 131.13 198.889 130.962 198.896L130.381 198.921L129.854 198.939L129.502 198.949H129.323C129.213 198.949 129.104 198.955 128.994 198.956H128.82C128.71 198.956 128.601 198.956 128.491 198.961L128.043 198.967H127.418C126.927 198.967 126.437 198.962 125.949 198.952L125.553 198.943C125.44 198.943 125.327 198.938 125.216 198.934L124.796 198.922L124.275 198.902L123.805 198.881L123.684 198.876L123.237 198.853C123.112 198.846 122.989 198.84 122.865 198.831L122.576 198.814C122.213 198.791 121.85 198.766 121.487 198.738L121.107 198.707C120.947 198.695 120.787 198.68 120.628 198.666C120.441 198.65 120.254 198.632 120.067 198.614C119.754 198.585 119.441 198.553 119.128 198.519H119.113C123.683 188.324 121.372 178.802 112.137 169.575C106.08 163.526 102.051 154.594 101.215 152.633C99.5229 146.828 95.045 140.375 87.608 140.375C86.979 140.375 86.351 140.425 85.73 140.523C82.472 141.036 79.624 142.911 77.592 145.733C75.396 143.002 73.262 140.831 71.332 139.605C68.422 137.76 65.5179 136.824 62.6889 136.824C59.1579 136.824 56.0019 138.274 53.8019 140.904L53.7459 140.971C53.7039 140.798 53.6639 140.625 53.6229 140.451L53.6179 140.428C53.1992 138.638 52.8477 136.833 52.5639 135.016C52.5639 135.004 52.5639 134.992 52.5579 134.98C52.5359 134.843 52.5159 134.705 52.4949 134.568C52.4334 134.162 52.3757 133.755 52.3219 133.348C52.2979 133.163 52.2719 132.978 52.2489 132.793L52.1809 132.238C52.1589 132.053 52.1409 131.885 52.1209 131.709L52.115 131.665C52.0351 130.945 51.9651 130.225 51.9049 129.503L51.8829 129.226L51.8479 128.754C51.8379 128.625 51.8279 128.495 51.8209 128.365C51.8209 128.334 51.8159 128.304 51.8149 128.275C51.7895 127.913 51.7678 127.55 51.7499 127.187C51.7399 126.998 51.7299 126.81 51.7219 126.62L51.7019 126.124L51.6969 125.974L51.6809 125.517L51.6709 125.128C51.6709 124.973 51.6629 124.818 51.6609 124.663C51.6579 124.508 51.6539 124.338 51.6529 124.174C51.6509 124.01 51.6529 123.848 51.6479 123.685C51.6439 123.521 51.6479 123.358 51.6479 123.195C51.6479 81.3421 85.5789 47.4111 127.436 47.4111C169.292 47.4111 203.222 81.3411 203.222 123.195V124.174C203.222 124.337 203.217 124.501 203.214 124.663C203.214 124.798 203.208 124.931 203.204 125.068C203.204 125.188 203.199 125.309 203.195 125.425C203.195 125.578 203.186 125.731 203.181 125.884V125.896L203.16 126.427C203.153 126.582 203.147 126.738 203.139 126.893L203.134 127.003L203.107 127.499C203.048 128.562 202.967 129.623 202.866 130.683V130.696C202.849 130.87 202.832 131.044 202.813 131.218L202.768 131.629L202.679 132.433L202.628 132.84L202.565 133.319C202.542 133.493 202.519 133.668 202.493 133.841C202.467 134.036 202.438 134.23 202.409 134.424L202.34 134.883L202.258 135.403C202.23 135.576 202.2 135.748 202.168 135.92C202.135 136.093 202.109 136.265 202.079 136.437C202.019 136.781 201.956 137.125 201.89 137.468C201.789 137.981 201.686 138.493 201.58 139.005L201.47 139.512C201.434 139.681 201.395 139.851 201.357 140.02C199.224 137.947 196.399 136.818 193.284 136.818C190.457 136.818 187.55 137.753 184.641 139.598C182.711 140.824 180.578 142.996 178.381 145.726C176.346 142.904 173.498 141.029 170.242 140.516C169.621 140.418 168.993 140.368 168.364 140.368C160.925 140.368 156.45 146.821 154.757 152.626C153.917 154.587 149.887 163.519 143.825 169.577C134.596 178.775 132.268 188.254 136.766 198.407ZM215.007 177.998L214.977 178.087C214.901 178.288 214.813 178.484 214.714 178.674C214.639 178.814 214.558 178.95 214.47 179.082C214.303 179.331 214.12 179.569 213.921 179.793C213.875 179.845 213.831 179.897 213.779 179.948C213.707 180.025 213.634 180.101 213.559 180.175C212.213 181.509 210.161 182.679 207.841 183.752C207.578 183.871 207.311 183.99 207.042 184.11L206.774 184.229C206.595 184.308 206.416 184.386 206.228 184.463C206.049 184.541 205.863 184.619 205.677 184.695L205.119 184.925C203.814 185.462 202.477 185.974 201.173 186.479L200.615 186.696L200.064 186.912C199.697 187.055 199.335 187.198 198.979 187.341L198.448 187.555L197.926 187.768L197.67 187.876C197.499 187.947 197.332 188.018 197.165 188.089C193.328 189.736 190.567 191.411 191.147 193.489C191.163 193.548 191.181 193.604 191.201 193.659C191.253 193.813 191.324 193.958 191.413 194.095C191.465 194.176 191.525 194.253 191.592 194.323C192.274 195.032 193.515 194.92 195.08 194.357C195.3 194.276 195.519 194.192 195.736 194.104L195.872 194.048C196.23 193.896 196.609 193.726 196.996 193.542C197.093 193.496 197.191 193.452 197.289 193.401C199.203 192.465 201.372 191.205 203.524 190.058C204.385 189.593 205.258 189.152 206.142 188.733C208.18 187.774 210.096 187.094 211.636 187.094C212.359 187.094 212.997 187.242 213.529 187.582L213.618 187.641C213.952 187.876 214.232 188.178 214.441 188.528C214.482 188.595 214.522 188.666 214.561 188.739C215.322 190.184 214.685 191.68 213.194 193.147C211.763 194.556 209.537 195.937 207.007 197.215C206.819 197.31 206.631 197.405 206.44 197.498C198.91 201.196 189.049 203.981 188.912 204.016C186.284 204.697 182.526 205.591 178.292 206.26L177.666 206.358L177.563 206.373C177.089 206.445 176.614 206.512 176.138 206.574C175.655 206.639 175.167 206.698 174.676 206.753L174.586 206.763C172.806 206.968 171.019 207.104 169.228 207.169H169.202C168.554 207.192 167.907 207.204 167.259 207.204H166.512C165.524 207.191 164.538 207.146 163.553 207.07C163.53 207.07 163.505 207.07 163.482 207.064C163.129 207.037 162.777 207.004 162.425 206.965C162.06 206.926 161.696 206.882 161.333 206.833C161.094 206.801 160.856 206.765 160.618 206.726C160.376 206.687 160.134 206.647 159.893 206.605L159.564 206.543L159.539 206.538C159.192 206.472 158.847 206.399 158.503 206.319C158.303 206.274 158.104 206.23 157.907 206.176L157.788 206.146C157.69 206.122 157.595 206.096 157.498 206.07L157.445 206.056L157.137 205.966C157.025 205.935 156.913 205.901 156.801 205.868L156.762 205.857L156.471 205.768C156.361 205.734 156.251 205.698 156.142 205.662L155.874 205.573L155.677 205.504C155.487 205.437 155.298 205.368 155.111 205.296L154.933 205.226L154.786 205.168C154.502 205.054 154.22 204.935 153.941 204.81L153.756 204.72L153.725 204.706C153.659 204.675 153.594 204.644 153.528 204.617C153.399 204.555 153.271 204.491 153.144 204.426L153.105 204.407L152.921 204.31C152.594 204.139 152.274 203.957 151.96 203.764L151.788 203.658C151.702 203.605 151.616 203.55 151.532 203.494L151.308 203.346L151.067 203.18L150.923 203.077C150.771 202.969 150.622 202.857 150.476 202.742L150.243 202.563C150.15 202.488 150.058 202.412 149.967 202.335C149.89 202.272 149.815 202.206 149.74 202.14L149.734 202.135C149.653 202.064 149.574 201.993 149.495 201.92C149.417 201.849 149.339 201.777 149.263 201.704L149.254 201.695C149.174 201.619 149.096 201.542 149.019 201.463C148.942 201.385 148.863 201.307 148.788 201.227C148.713 201.148 148.636 201.067 148.562 200.984C148.488 200.902 148.42 200.827 148.35 200.746L148.327 200.719C148.259 200.641 148.192 200.562 148.126 200.481C147.983 200.31 147.844 200.135 147.71 199.956C147.575 199.776 147.443 199.592 147.314 199.405L147.191 199.221C147.027 198.981 146.867 198.739 146.712 198.493C146.596 198.316 146.483 198.138 146.373 197.957C146.302 197.844 146.234 197.73 146.166 197.618L146.138 197.572C146.073 197.462 146.009 197.354 145.947 197.245C145.911 197.186 145.877 197.127 145.845 197.066C145.812 197.004 145.774 196.941 145.739 196.878L145.682 196.779L145.647 196.715C145.58 196.595 145.514 196.474 145.45 196.352C145.42 196.298 145.391 196.244 145.36 196.192L145.271 196.019L145.181 195.848C144.956 195.398 144.743 194.942 144.543 194.48L144.472 194.311C144.426 194.198 144.383 194.086 144.337 193.975C144.315 193.921 144.293 193.868 144.274 193.814C144.167 193.537 144.067 193.257 143.975 192.975C143.942 192.874 143.91 192.775 143.88 192.675C143.808 192.448 143.743 192.219 143.685 191.988C143.614 191.719 143.551 191.448 143.498 191.175C143.487 191.12 143.476 191.065 143.467 191.012C143.415 190.745 143.373 190.476 143.34 190.206C143.332 190.153 143.326 190.1 143.32 190.047L143.303 189.885C143.281 189.673 143.264 189.46 143.254 189.247C143.254 189.193 143.249 189.139 143.247 189.087C143.242 188.981 143.24 188.875 143.239 188.769C143.183 184.496 145.345 180.388 149.968 175.767C158.203 167.54 162.997 155.501 162.997 155.501C162.997 155.501 163.126 154.996 163.394 154.269C163.431 154.168 163.47 154.064 163.514 153.955C163.67 153.548 163.846 153.148 164.041 152.758L164.08 152.683C164.246 152.351 164.428 152.027 164.624 151.712C164.67 151.639 164.714 151.567 164.765 151.494C164.912 151.277 165.067 151.065 165.23 150.86C165.319 150.749 165.416 150.639 165.513 150.532C165.552 150.49 165.59 150.448 165.631 150.408C166.108 149.915 166.653 149.513 167.27 149.299L167.348 149.273C167.4 149.256 167.452 149.24 167.505 149.225C167.566 149.209 167.627 149.195 167.69 149.182L167.719 149.176C167.849 149.15 167.981 149.133 168.114 149.124H168.125C168.194 149.124 168.264 149.117 168.335 149.117C168.424 149.117 168.507 149.117 168.594 149.126C168.684 149.134 168.773 149.144 168.863 149.158C169.605 149.276 170.311 149.718 170.919 150.4C171.15 150.66 171.358 150.94 171.54 151.236C171.66 151.428 171.773 151.631 171.88 151.845C171.923 151.934 171.964 152.016 172.004 152.104C172.108 152.33 172.202 152.56 172.284 152.795C172.479 153.345 172.626 153.911 172.723 154.487C172.807 154.992 172.857 155.502 172.873 156.013C172.881 156.286 172.881 156.563 172.873 156.842C172.819 158.14 172.553 159.421 172.086 160.634C172.044 160.745 171.997 160.857 171.952 160.969C171.86 161.195 171.759 161.417 171.65 161.634C171.569 161.799 171.484 161.965 171.392 162.13C171.332 162.24 171.269 162.35 171.206 162.46C171.045 162.734 170.871 163.006 170.684 163.277L170.571 163.439C170.129 164.055 169.637 164.633 169.099 165.167C168.569 165.698 168.001 166.189 167.4 166.637C166.798 167.083 166.233 167.577 165.711 168.114C164.208 169.691 163.858 171.083 164.196 172.138C164.25 172.304 164.321 172.465 164.407 172.617C164.508 172.791 164.628 172.951 164.764 173.097L164.817 173.152L164.871 173.206C164.925 173.258 164.982 173.309 165.043 173.359L165.103 173.407C165.248 173.519 165.402 173.619 165.563 173.707C165.61 173.732 165.652 173.757 165.705 173.781C165.879 173.866 166.058 173.939 166.242 173.998C166.293 174.015 166.344 174.03 166.396 174.046L166.461 174.063L166.551 174.087L166.628 174.106L166.712 174.124L166.795 174.141L166.874 174.154C166.932 174.164 166.992 174.174 167.052 174.181L167.109 174.19L167.213 174.2L167.277 174.207L167.382 174.214H167.444L167.554 174.22H167.9L167.999 174.214L168.113 174.207L168.252 174.194L168.382 174.179C168.412 174.179 168.442 174.171 168.472 174.165C168.872 174.107 169.264 174.001 169.639 173.849L169.798 173.782C169.887 173.743 169.977 173.702 170.059 173.658C170.235 173.57 170.406 173.47 170.57 173.361C170.799 173.211 171.015 173.043 171.217 172.858C171.265 172.815 171.312 172.769 171.358 172.725C171.381 172.703 171.403 172.682 171.425 172.658C171.469 172.613 171.514 172.569 171.558 172.52C171.878 172.168 172.155 171.78 172.383 171.363C174.34 167.804 176.391 164.298 178.534 160.849L178.828 160.378L179.125 159.907C179.273 159.668 179.423 159.433 179.572 159.199L179.722 158.965C180.22 158.185 180.726 157.41 181.241 156.641L181.546 156.185C182.158 155.278 182.768 154.396 183.373 153.558L183.674 153.143C184.332 152.236 185.017 151.348 185.728 150.482L186.01 150.144C186.057 150.088 186.1 150.032 186.151 149.978C186.244 149.868 186.337 149.761 186.428 149.657C186.474 149.604 186.517 149.552 186.566 149.5L186.834 149.198L186.968 149.051C187.103 148.906 187.235 148.767 187.365 148.634C187.455 148.544 187.538 148.455 187.624 148.371C188.131 147.853 188.69 147.388 189.293 146.985L189.433 146.895C189.567 146.805 189.706 146.721 189.848 146.645C192.212 145.303 194.169 145.204 195.296 146.331C195.978 147.013 196.356 148.144 196.335 149.718C196.335 149.787 196.335 149.857 196.33 149.929V150.006C196.33 150.078 196.324 150.15 196.318 150.223C196.318 150.313 196.308 150.402 196.299 150.492C196.29 150.581 196.285 150.649 196.276 150.729C196.276 150.751 196.272 150.774 196.268 150.798C196.262 150.867 196.253 150.938 196.243 151.009C196.243 151.03 196.243 151.052 196.235 151.074C196.224 151.169 196.21 151.263 196.194 151.357C196.183 151.447 196.168 151.531 196.152 151.619L196.126 151.768C196.1 151.91 196.067 152.05 196.026 152.188C195.948 152.447 195.854 152.7 195.743 152.946C195.588 153.284 195.417 153.613 195.229 153.933C195.125 154.111 195.018 154.286 194.907 154.459C194.793 154.638 194.673 154.819 194.549 155.002C194.233 155.454 193.905 155.897 193.564 156.33L193.408 156.527C192.852 157.22 192.278 157.899 191.686 158.562L191.499 158.772C191.247 159.053 190.991 159.336 190.729 159.62L190.532 159.834C190.401 159.977 190.264 160.12 190.132 160.264C190.001 160.407 189.864 160.552 189.726 160.697L189.315 161.13L188.898 161.566L188.478 162.002C188.196 162.294 187.913 162.586 187.628 162.878C183.573 167.037 179.301 171.182 177.855 173.766C177.758 173.934 177.671 174.108 177.593 174.285C177.387 174.755 177.301 175.157 177.36 175.482C177.379 175.589 177.416 175.691 177.471 175.785C177.552 175.926 177.651 176.056 177.766 176.172C177.819 176.224 177.875 176.272 177.934 176.316C178.232 176.528 178.591 176.637 178.957 176.627H179.071L179.188 176.618L179.305 176.605L179.402 176.591C179.415 176.589 179.429 176.587 179.442 176.583L179.531 176.566L179.554 176.561L179.653 176.54L179.688 176.531C179.723 176.522 179.757 176.513 179.792 176.503C179.827 176.493 179.875 176.48 179.917 176.466C180.093 176.413 180.265 176.35 180.434 176.278C180.523 176.242 180.61 176.203 180.696 176.161C180.741 176.141 180.786 176.12 180.828 176.098L180.962 176.032C181.282 175.866 181.594 175.685 181.898 175.491L182.031 175.401C182.076 175.373 182.121 175.344 182.164 175.312L182.297 175.223L182.368 175.174L182.56 175.039C182.739 174.916 182.906 174.789 183.075 174.66L183.09 174.648L183.359 174.44C183.726 174.15 184.074 173.858 184.39 173.583L184.6 173.399L184.619 173.381L184.729 173.284C184.987 173.052 185.217 172.836 185.408 172.658L185.487 172.581C185.556 172.516 185.619 172.455 185.676 172.403L185.788 172.292L185.828 172.253L185.839 172.242L185.956 172.125L186.03 172.048L186.039 172.041L186.074 172.009L186.118 171.969L186.132 171.956L186.169 171.922L186.373 171.743L186.487 171.641C186.548 171.588 186.607 171.534 186.666 171.479L186.802 171.358C186.827 171.338 186.851 171.316 186.876 171.294L187.019 171.169L187.229 170.984L187.341 170.887C187.776 170.509 188.305 170.052 188.913 169.537L189.162 169.326L189.573 168.981L189.994 168.63C190.544 168.173 191.136 167.688 191.762 167.185L192.173 166.855C192.523 166.576 192.882 166.292 193.246 166.006C193.393 165.891 193.542 165.776 193.694 165.662C194.066 165.373 194.44 165.086 194.817 164.803C195.675 164.155 196.56 163.506 197.456 162.874L197.84 162.606C198.109 162.421 198.377 162.235 198.645 162.054L198.888 161.89C199.367 161.565 199.853 161.248 200.343 160.939L200.586 160.786L200.827 160.636C201.069 160.486 201.309 160.339 201.548 160.196L201.787 160.053L202.265 159.775L202.734 159.506L202.829 159.454L203.2 159.25C203.355 159.166 203.509 159.085 203.663 159.006L203.892 158.888L204.115 158.776C204.193 158.739 204.27 158.7 204.346 158.663C204.848 158.415 205.36 158.187 205.88 157.979C206.021 157.919 206.161 157.865 206.3 157.818L206.71 157.674C206.833 157.633 206.953 157.594 207.068 157.559L207.108 157.547C207.17 157.527 207.232 157.509 207.293 157.493L207.311 157.488C207.439 157.451 207.566 157.419 207.691 157.389H207.7C208.054 157.304 208.414 157.243 208.777 157.206C208.944 157.189 209.111 157.18 209.279 157.181H209.363C209.475 157.181 209.583 157.188 209.69 157.199C209.739 157.199 209.788 157.209 209.836 157.215H209.856C209.904 157.221 209.952 157.228 210 157.239C210.047 157.248 210.095 157.256 210.141 157.267H210.156C210.203 157.277 210.245 157.289 210.294 157.303C210.548 157.374 210.79 157.484 211.012 157.628C211.121 157.699 211.223 157.779 211.317 157.868L211.344 157.894C211.362 157.91 211.379 157.927 211.395 157.944L211.444 157.997C211.846 158.418 212.178 158.901 212.428 159.427L212.466 159.517C212.551 159.717 212.618 159.924 212.666 160.135C212.808 160.781 212.753 161.455 212.508 162.07C212.415 162.318 212.302 162.557 212.169 162.785C211.858 163.309 211.489 163.796 211.07 164.237L210.981 164.332C210.848 164.472 210.71 164.612 210.565 164.752C210.501 164.815 210.434 164.877 210.367 164.94L210.162 165.129L210.055 165.224C209.797 165.454 209.532 165.677 209.263 165.893C209.1 166.025 208.936 166.154 208.77 166.281C208.184 166.729 207.587 167.161 206.979 167.578C206.612 167.83 206.242 168.077 205.869 168.321C204.95 168.924 204.021 169.512 203.083 170.084C201.115 171.294 198.934 172.588 196.609 173.995L196.007 174.36C195.348 174.762 194.726 175.146 194.14 175.512L193.845 175.697L193.287 176.055C192.917 176.292 192.548 176.531 192.179 176.77L191.882 176.966C191.737 177.06 191.593 177.156 191.449 177.252L191.308 177.342L190.876 177.633L190.647 177.79L190.379 177.976L190.13 178.149C189.713 178.444 189.325 178.725 188.968 178.992L188.834 179.094C188.624 179.253 188.416 179.415 188.211 179.58C187.902 179.829 187.62 180.067 187.367 180.296L187.243 180.409C187.172 180.474 187.102 180.539 187.035 180.603C186.989 180.648 186.946 180.693 186.898 180.736L186.834 180.8C186.691 180.944 186.551 181.091 186.416 181.242L186.35 181.318C186.203 181.488 186.075 181.651 185.963 181.81L185.913 181.881C185.825 182.009 185.744 182.141 185.671 182.277C185.652 182.311 185.635 182.345 185.618 182.379L185.569 182.481L185.536 182.555L185.515 182.605L185.498 182.65L185.475 182.711C185.413 182.88 185.37 183.056 185.345 183.234L185.337 183.296L185.331 183.354V183.669C185.331 183.695 185.331 183.721 185.338 183.749L185.343 183.797C185.343 183.823 185.349 183.848 185.353 183.876C185.357 183.902 185.364 183.949 185.372 183.986V183.991C185.379 184.026 185.386 184.06 185.395 184.095C185.404 184.13 185.413 184.17 185.424 184.206C185.443 184.277 185.467 184.347 185.492 184.417C185.508 184.459 185.523 184.5 185.54 184.541C185.54 184.549 185.546 184.558 185.55 184.566L185.586 184.647L185.636 184.758C185.69 184.873 185.749 184.985 185.813 185.094L185.879 185.208L185.947 185.322C185.959 185.341 185.973 185.359 185.988 185.376L186.01 185.399L186.035 185.422L186.061 185.442C186.099 185.469 186.14 185.49 186.183 185.505C186.206 185.513 186.23 185.519 186.254 185.525C186.831 185.655 188.017 185.178 189.593 184.346C189.682 184.298 189.78 184.248 189.875 184.196L190.355 183.934L190.589 183.804C190.756 183.715 190.926 183.614 191.1 183.515L191.417 183.336C193.5 182.137 195.988 180.597 198.56 179.093C198.801 178.952 199.043 178.811 199.285 178.672L199.771 178.361C200.335 178.038 200.902 177.719 201.471 177.404C202.188 177.01 202.91 176.626 203.639 176.254L204.115 176.013C204.431 175.857 204.744 175.705 205.053 175.557C205.651 175.273 206.256 175.003 206.868 174.748L207.203 174.612L207.243 174.596C209.018 173.893 210.627 173.459 211.929 173.459C212.21 173.456 212.492 173.48 212.769 173.528H212.778C212.867 173.544 212.948 173.562 213.031 173.582H213.046C213.259 173.636 213.466 173.713 213.662 173.812C213.937 173.954 214.184 174.143 214.393 174.371C214.489 174.477 214.574 174.592 214.649 174.714C214.789 174.929 214.899 175.162 214.978 175.406C215.01 175.501 215.038 175.594 215.067 175.693C215.278 176.45 215.257 177.253 215.007 177.998Z" fill="#FF9D00"/>
<path fill-rule="evenodd" clip-rule="evenodd" d="M203.21 123.685V123.194C203.21 81.34 169.292 47.411 127.435 47.411C85.5791 47.411 51.648 81.342 51.648 123.194V123.358C51.646 123.467 51.645 123.576 51.648 123.685C51.6529 123.848 51.6546 124.011 51.653 124.174L51.6581 124.534L51.661 124.663C51.661 124.723 51.6631 124.782 51.6651 124.842C51.6681 124.937 51.67 125.033 51.67 125.128L51.681 125.517L51.697 125.974L51.702 126.124L51.722 126.597V126.62C51.73 126.805 51.7401 126.989 51.7491 127.173L51.75 127.187C51.76 127.375 51.7701 127.564 51.7821 127.753C51.7921 127.927 51.802 128.101 51.815 128.275L51.8171 128.306C51.8258 128.455 51.8358 128.605 51.847 128.754L51.85 128.794L51.883 129.226L51.8861 129.254C51.8921 129.338 51.898 129.422 51.906 129.503C51.9658 130.224 52.0355 130.945 52.1151 131.664L52.12 131.709L52.181 132.238L52.2491 132.793L52.299 133.17L52.322 133.347C52.3753 133.755 52.433 134.162 52.495 134.568L52.4991 134.595L52.558 134.979C52.8435 136.808 53.1971 138.626 53.618 140.429L53.6231 140.451L53.655 140.586L53.746 140.971L53.802 140.904C56.002 138.274 59.158 136.824 62.689 136.824C65.519 136.824 68.4221 137.76 71.3321 139.605C73.2621 140.831 75.3961 143.002 77.5921 145.733C79.6241 142.911 82.4721 141.035 85.7301 140.523C86.3513 140.425 86.9792 140.376 87.6081 140.375C95.0441 140.375 99.523 146.828 101.215 152.633C102.051 154.594 106.08 163.526 112.156 169.568C121.392 178.795 123.703 188.316 119.132 198.511H119.148C119.459 198.546 119.772 198.578 120.087 198.607C120.274 198.625 120.46 198.643 120.648 198.659L120.714 198.665L121.127 198.7L121.507 198.73C121.869 198.758 122.232 198.784 122.596 198.807L122.885 198.824L123.114 198.838L123.256 198.846L123.703 198.869L123.825 198.874L124.294 198.895L124.816 198.915L125.235 198.927L125.305 198.929C125.394 198.933 125.483 198.936 125.572 198.936L125.668 198.939C126.258 198.953 126.847 198.96 127.437 198.959H128.063L128.51 198.954C128.62 198.949 128.729 198.949 128.84 198.949H129.014L129.165 198.945C129.224 198.943 129.283 198.941 129.343 198.941H129.522L129.873 198.932L130.401 198.914L130.982 198.888C131.15 198.882 131.316 198.873 131.482 198.865L131.661 198.854L131.927 198.84L132.083 198.831L132.201 198.823L132.738 198.788L133.274 198.749L133.761 198.71L134.103 198.681L134.479 198.647C135.107 198.591 135.733 198.525 136.359 198.45L136.786 198.399C132.287 188.247 134.616 178.767 143.813 169.577C149.876 163.519 153.905 154.587 154.745 152.625C156.438 146.821 160.914 140.368 168.352 140.368C168.981 140.368 169.61 140.418 170.231 140.516C173.486 141.028 176.334 142.904 178.369 145.726C180.566 142.996 182.699 140.823 184.63 139.597C187.539 137.753 190.445 136.817 193.272 136.817C196.388 136.817 199.212 137.947 201.345 140.02C201.384 139.851 201.422 139.682 201.459 139.512L201.568 139.006C201.607 138.821 201.646 138.636 201.683 138.451C201.749 138.124 201.815 137.797 201.878 137.467C201.944 137.125 202.007 136.781 202.067 136.437L202.098 136.251C202.117 136.141 202.135 136.031 202.156 135.92C202.19 135.748 202.218 135.576 202.246 135.402L202.257 135.336L202.328 134.883L202.398 134.424V134.42C202.449 134.081 202.497 133.742 202.542 133.403L202.553 133.319L202.616 132.841L202.667 132.433L202.757 131.629L202.792 131.306L202.801 131.218C202.82 131.044 202.838 130.87 202.854 130.696V130.682C202.867 130.544 202.881 130.405 202.893 130.266C202.964 129.478 203.024 128.686 203.072 127.891C203.081 127.761 203.088 127.63 203.096 127.499V127.493L203.122 127.002L203.128 126.892C203.144 126.56 203.158 126.228 203.169 125.896V125.884L203.174 125.754C203.179 125.645 203.183 125.535 203.183 125.425L203.185 125.381C203.189 125.278 203.193 125.172 203.193 125.067L203.196 124.977C203.199 124.872 203.202 124.768 203.202 124.663L203.204 124.574C203.207 124.441 203.21 124.307 203.21 124.174V123.685ZM108.638 199.391C114.64 190.59 114.214 183.984 105.98 175.754C97.7441 167.523 92.951 155.487 92.951 155.487C92.951 155.487 91.1621 148.496 87.0821 149.138C83.0021 149.78 80.0091 160.227 88.5521 166.622C97.0941 173.017 86.8521 177.353 83.5641 171.352C80.2761 165.35 71.299 149.923 66.645 146.972C61.991 144.021 58.718 145.675 59.815 151.757C60.36 154.776 65.4281 159.929 70.1631 164.743C74.9671 169.627 79.428 174.163 78.474 175.768C76.581 178.955 69.9141 172.023 69.9141 172.023C69.9141 172.023 49.038 153.025 44.494 157.976C40.304 162.539 46.765 166.418 56.7211 172.397C57.5671 172.905 58.4391 173.429 59.3321 173.969C70.7231 180.865 71.609 182.684 69.992 185.293C69.395 186.257 65.582 183.968 60.892 181.153C52.897 176.352 42.3551 170.023 40.8661 175.688C39.5781 180.591 47.334 183.595 54.368 186.32C60.228 188.59 65.5881 190.666 64.7991 193.484C63.9821 196.406 59.5531 193.969 54.7121 191.305C49.2771 188.314 43.3221 185.038 41.3731 188.735C37.6901 195.725 66.7831 203.954 67.0231 204.015C76.4231 206.453 100.295 211.619 108.638 199.391ZM147.303 199.391C141.301 190.59 141.727 183.984 149.962 175.754C158.197 167.523 162.99 155.487 162.99 155.487C162.99 155.487 164.779 148.496 168.859 149.138C172.939 149.78 175.932 160.227 167.39 166.622C158.847 173.017 169.089 177.353 172.377 171.352C175.666 165.35 184.637 149.923 189.291 146.972C193.945 144.021 197.22 145.675 196.122 151.757C195.578 154.776 190.509 159.929 185.774 164.744C180.97 169.628 176.509 174.163 177.462 175.768C179.355 178.955 186.027 172.019 186.027 172.019C186.027 172.019 206.902 153.022 211.448 157.973C215.637 162.535 209.176 166.415 199.219 172.394C198.348 172.917 197.478 173.441 196.609 173.966C185.218 180.862 184.332 182.681 185.948 185.289C186.546 186.254 190.359 183.964 195.048 181.149C203.044 176.349 213.586 170.019 215.075 175.685C216.364 180.588 208.607 183.592 201.573 186.317C195.713 188.587 190.353 190.663 191.141 193.481C191.957 196.402 196.385 193.965 201.225 191.301C206.66 188.31 212.616 185.032 214.564 188.732C218.248 195.726 189.15 203.947 188.915 204.007C179.515 206.453 155.643 211.619 147.303 199.391Z" fill="#FFD21E"/>
<path fill-rule="evenodd" clip-rule="evenodd" d="M152.047 102.567C153.229 102.985 154.108 104.257 154.944 105.468C156.074 107.104 157.126 108.627 158.74 107.769C160.644 106.756 162.205 105.202 163.225 103.302C164.246 101.402 164.681 99.2427 164.475 97.096C164.321 95.4908 163.813 93.9398 162.987 92.5548C162.161 91.1697 161.038 89.985 159.7 89.0862C158.361 88.1874 156.839 87.5968 155.245 87.3569C153.65 87.117 152.022 87.2339 150.478 87.699C148.934 88.1639 147.513 88.9653 146.316 90.0455C145.119 91.1257 144.176 92.4578 143.556 93.946C142.936 95.4342 142.653 97.0415 142.728 98.652C142.804 100.263 143.235 101.836 143.992 103.26C144.74 104.667 146.4 104.003 148.152 103.302C149.525 102.753 150.956 102.181 152.047 102.567ZM100.672 102.567C99.49 102.985 98.611 104.258 97.775 105.468C96.645 107.105 95.592 108.627 93.979 107.769C91.5845 106.501 89.7482 104.386 88.8278 101.838C87.9075 99.2895 87.9692 96.4896 89.0008 93.9841C90.0324 91.4786 91.9601 89.4471 94.408 88.2855C96.856 87.1239 99.6488 86.9156 102.242 87.701C104.307 88.3228 106.141 89.5427 107.513 91.2065C108.885 92.8704 109.732 94.9035 109.949 97.049C110.165 99.1945 109.74 101.356 108.728 103.26C107.979 104.667 106.319 104.003 104.567 103.303C103.193 102.753 101.764 102.181 100.672 102.567ZM144.099 149.318C152.242 142.903 155.233 132.429 155.233 125.977C155.233 120.877 151.802 122.482 146.309 125.202L145.999 125.355C140.957 127.852 134.245 131.177 126.877 131.177C119.508 131.177 112.796 127.852 107.755 125.354C102.084 122.545 98.527 120.783 98.527 125.978C98.527 132.634 101.709 143.563 110.443 149.912C111.596 147.573 113.219 145.497 115.211 143.813C117.202 142.129 119.52 140.874 122.018 140.126C122.89 139.866 123.788 141.367 124.707 142.904C125.594 144.386 126.501 145.902 127.423 145.902C128.406 145.902 129.371 144.408 130.314 142.95C131.299 141.425 132.26 139.94 133.189 140.237C137.864 141.738 141.775 144.993 144.099 149.318Z" fill="#32343D"/>
<path d="M144.097 149.317C139.856 152.659 134.219 154.9 126.878 154.9C119.981 154.9 114.587 152.922 110.443 149.911C111.596 147.572 113.219 145.495 115.211 143.812C117.202 142.128 119.52 140.873 122.018 140.125C123.73 139.614 125.545 145.901 127.423 145.901C129.433 145.901 131.37 139.655 133.189 140.236C137.863 141.738 141.773 144.993 144.097 149.317Z" fill="#FF323D"/>
<path fill-rule="evenodd" clip-rule="evenodd" d="M81.2 111.64C80.2312 112.288 79.1173 112.687 77.9572 112.801C76.7971 112.916 75.6267 112.742 74.55 112.295C73.6893 111.94 72.9072 111.418 72.2488 110.759C71.5903 110.101 71.0684 109.319 70.713 108.458C70.267 107.381 70.0935 106.211 70.2082 105.051C70.3228 103.891 70.7219 102.777 71.37 101.808C72.1488 100.642 73.2558 99.7333 74.5512 99.1967C75.8466 98.6601 77.272 98.5197 78.6471 98.7935C80.0223 99.0672 81.2853 99.7427 82.2764 100.734C83.2675 101.726 83.9422 102.99 84.215 104.365C84.4883 105.74 84.3477 107.165 83.8113 108.46C83.2748 109.755 82.3654 110.861 81.2 111.64ZM182.613 111.64C181.644 112.288 180.53 112.687 179.37 112.801C178.209 112.916 177.039 112.742 175.962 112.295C175.101 111.939 174.319 111.418 173.661 110.759C173.003 110.101 172.481 109.319 172.125 108.458C171.68 107.381 171.507 106.211 171.621 105.051C171.736 103.891 172.135 102.777 172.782 101.808C173.364 100.936 174.133 100.205 175.032 99.6658C175.931 99.1269 176.938 98.7942 177.981 98.6917C179.025 98.5891 180.078 98.7193 181.064 99.0728C182.051 99.4264 182.947 99.9944 183.688 100.736C184.68 101.727 185.355 102.99 185.628 104.365C185.902 105.74 185.761 107.165 185.224 108.46C184.687 109.755 183.779 110.861 182.613 111.64Z" fill="#FFAD03"/>
  </svg>
</g>
</svg>
